# xmcd
#
# Track frame offsets:
#       150
#       13605
#       26951
#       39165
#       52917
#       66124
#       78226
#       89511
#       103712
#       117517
#       128996
#       142342
#       155432
#       168643
#       180448
#       193191
#       206644
#       218808
#       232126
#       244679
#
# Disc length: 3411 seconds
#
# Revision: 4
# Processed by: cddbd v1.5.1PL0 Copyright (c) Steve Scherf et al.
# Submitted via: MusiCat 1.1
#
DISCID=220d5114
DTITLE=Arbee Stidham - The Complete Recordings Volume 1 1947 - 1951
DYEAR=1900
DGENRE=
TTITLE0=In Love With You
TTITLE1=I Found Out For Myself
TTITLE2=I Don't Know How To Cry
TTITLE3=My Heart Belongs To You
TTITLE4=Your Heart Belongs To Me
TTITLE5=Stidham Jumps
TTITLE6=What The Blues Will Do
TTITLE7=A Heart Full Of Misery
TTITLE8=Falling Blues
TTITLE9=You'll Be Sorry
TTITLE10=I've Got So Many Worries
TTITLE11=So Tired Of Dreaming
TTITLE12=I Send My Regrets
TTITLE13=Barbecue Lounge
TTITLE14=Feel Like I'm Losing You
TTITLE15=Let My Dreams Come True
TTITLE16=Squeeze Me Baby
TTITLE17=Any Time You Ring My Bell
TTITLE18=Nothing Seems Right
TTITLE19=Sixty Minutes To Wait
EXTD=Blue Moon\nBMCD 6038\n
EXTT0=
EXTT1=
EXTT2=
EXTT3=
EXTT4=
EXTT5=
EXTT6=
EXTT7=
EXTT8=
EXTT9=
EXTT10=
EXTT11=
EXTT12=
EXTT13=
EXTT14=
EXTT15=
EXTT16=
EXTT17=
EXTT18=
EXTT19=
PLAYORDER=
